<svg width="30" height="30" viewBox="0 0 30 30" fill="none" xmlns="http://www.w3.org/2000/svg">
<path d="M23.75 0H6.25C2.80375 0 0 3.05864 0 6.81818V23.1818C0 26.9414 2.80375 30 6.25 30H23.75C27.1962 30 30 26.9414 30 23.1818V6.81818C30 3.05864 27.1962 0 23.75 0ZM8.125 23.8636C7.09 23.8636 6.25 22.9473 6.25 21.8182C6.25 20.6891 7.09 19.7727 8.125 19.7727C9.16 19.7727 10 20.6891 10 21.8182C10 22.9473 9.16 23.8636 8.125 23.8636ZM8.125 17.0455C7.09 17.0455 6.25 16.1291 6.25 15C6.25 13.8709 7.09 12.9545 8.125 12.9545C9.16 12.9545 10 13.8709 10 15C10 16.1291 9.16 17.0455 8.125 17.0455ZM8.125 10.2273C7.09 10.2273 6.25 9.31091 6.25 8.18182C6.25 7.05273 7.09 6.13636 8.125 6.13636C9.16 6.13636 10 7.05273 10 8.18182C10 9.31091 9.16 10.2273 8.125 10.2273ZM22.5 23.1818H13.75C13.06 23.1818 12.5 22.5709 12.5 21.8182C12.5 21.0655 13.06 20.4545 13.75 20.4545H22.5C23.19 20.4545 23.75 21.0655 23.75 21.8182C23.75 22.5709 23.19 23.1818 22.5 23.1818ZM22.5 16.3636H13.75C13.06 16.3636 12.5 15.7527 12.5 15C12.5 14.2473 13.06 13.6364 13.75 13.6364H22.5C23.19 13.6364 23.75 14.2473 23.75 15C23.75 15.7527 23.19 16.3636 22.5 16.3636ZM22.5 9.54545H13.75C13.06 9.54545 12.5 8.93455 12.5 8.18182C12.5 7.42909 13.06 6.81818 13.75 6.81818H22.5C23.19 6.81818 23.75 7.42909 23.75 8.18182C23.75 8.93455 23.19 9.54545 22.5 9.54545Z" fill="#D35353"/>
</svg>
