<svg width="50" height="46" viewBox="0 0 50 46" fill="none" xmlns="http://www.w3.org/2000/svg">
<path d="M50 43.7689C50 44.3214 49.7805 44.8513 49.3898 45.242C48.9991 45.6327 48.4692 45.8522 47.9167 45.8522H2.08333C1.5308 45.8522 1.0009 45.6327 0.610194 45.242C0.219493 44.8513 0 44.3214 0 43.7689C0 43.2163 0.219493 42.6864 0.610194 42.2957C1.0009 41.905 1.5308 41.6855 2.08333 41.6855H47.9167C48.4692 41.6855 48.9991 41.905 49.3898 42.2957C49.7805 42.6864 50 43.2163 50 43.7689ZM4.16667 37.5189H45.8333C46.3859 37.5189 46.9158 37.2994 47.3065 36.9087C47.6972 36.518 47.9167 35.9881 47.9167 35.4355V33.3522C47.9091 27.6383 45.7692 22.1329 41.9158 17.9139C38.0625 13.6949 32.7731 11.0659 27.0833 10.5418V7.77511C27.8777 7.31649 28.4985 6.60859 28.8495 5.76118C29.2005 4.91377 29.2621 3.97423 29.0247 3.08825C28.7873 2.20228 28.2642 1.4194 27.5365 0.861028C26.8088 0.302656 25.9172 0 25 0C24.0828 0 23.1912 0.302656 22.4635 0.861028C21.7358 1.4194 21.2127 2.20228 20.9753 3.08825C20.7379 3.97423 20.7995 4.91377 21.1505 5.76118C21.5015 6.60859 22.1223 7.31649 22.9167 7.77511V10.5418C17.2269 11.0659 11.9375 13.6949 8.08418 17.9139C4.23082 22.1329 2.0909 27.6383 2.08333 33.3522V35.4355C2.08333 35.9881 2.30283 36.518 2.69353 36.9087C3.08423 37.2994 3.61413 37.5189 4.16667 37.5189Z" fill="#2B3476"/>
</svg>
