<svg width="24" height="31" viewBox="0 0 24 31" fill="none" xmlns="http://www.w3.org/2000/svg">
<path d="M23.1764 26.9551V30.0894H0.609312V26.9551C0.609312 23.8446 3.14059 21.3133 6.25109 21.3133H17.5347C20.6452 21.3133 23.1764 23.8446 23.1764 26.9551ZM5.46375 5.04865C7.3807 3.25206 9.89067 2.36442 12.5222 2.5274C17.4419 2.84585 21.2971 7.12734 21.2971 12.2739C21.2971 14.493 19.493 16.2971 17.2739 16.2971H14.2574C13.9515 15.2578 13.0012 14.493 11.8628 14.493C10.4774 14.493 9.35532 15.6151 9.35532 17.0005C9.35532 18.3858 10.4774 19.5079 11.8628 19.5079C12.5373 19.5079 13.1479 19.2384 13.5979 18.8046H17.2739C20.8746 18.8046 23.8046 15.8746 23.8046 12.2739C23.8033 5.80967 18.9188 0.428662 12.6827 0.0262151C9.34279 -0.19068 6.17461 0.943945 3.74865 3.22072C1.50824 5.32071 0.161731 8.23062 0 11.2847H2.51122C2.66543 8.89886 3.69975 6.70232 5.46375 5.04865ZM15.7794 13.7909H17.4945C18.1227 13.7909 18.6718 13.3295 18.7445 12.7052C18.8298 11.9692 18.7984 11.1982 18.6304 10.4096C18.0738 7.8031 15.9587 5.70059 13.3485 5.164C8.91401 4.25254 4.99987 7.63384 4.99987 11.9103C4.99987 13.752 5.72578 15.427 6.90554 16.6645C7.04345 14.0178 9.21365 11.9091 11.8941 11.9091C13.4713 11.9091 14.8604 12.6513 15.7794 13.7897V13.7909Z" fill="#D35353"/>
</svg>
